<svg xmlns="http://www.w3.org/2000/svg" width="256" height="256" viewBox="0 0 100 100"><rect width="100" height="100" rx="50" fill="#e7a16e"></rect><path fill="#fff" d="M29 42.45L29 42.45Q29 44.60 27.98 46.42Q26.95 48.25 24.55 49.25L24.55 49.25Q27.40 50.20 28.80 52.22Q30.20 54.25 30.20 56.80L30.20 56.80Q30.20 61.35 26.93 63.55Q23.65 65.75 17.60 65.75L17.60 65.75Q15.50 65.75 13.52 65.57Q11.55 65.40 9.75 64.90L9.75 64.90Q7.65 64.30 7.65 62.60L7.65 62.60L7.65 37.00Q7.65 35.55 9.30 35.10L9.30 35.10Q11 34.60 12.90 34.42Q14.80 34.25 17.05 34.25L17.05 34.25Q22.70 34.25 25.85 36.25Q29 38.25 29 42.45ZM18.45 51.05L11.65 51.05L11.65 61.85Q12.85 62.10 14.43 62.25Q16 62.40 17.60 62.40L17.60 62.40Q21.75 62.40 23.90 61.02Q26.05 59.65 26.05 56.70L26.05 56.70Q26.05 54.10 24.13 52.57Q22.20 51.05 18.45 51.05L18.45 51.05ZM11.65 38.05L11.65 47.75L18.45 47.75Q21.60 47.75 23.23 46.35Q24.85 44.95 24.85 42.55L24.85 42.55Q24.85 37.60 17.05 37.60L17.05 37.60Q15.30 37.60 14.02 37.72Q12.75 37.85 11.65 38.05L11.65 38.05ZM59.30 36.20L59.30 36.20Q59.30 36.75 58.55 38.32Q57.80 39.90 56.45 42.25Q55.10 44.60 53.23 47.60Q51.35 50.60 49.10 53.95L49.10 53.95L49.10 65.10Q48.85 65.20 48.33 65.32Q47.80 65.45 47.25 65.45L47.25 65.45Q45.05 65.45 45.05 63.60L45.05 63.60L45.05 53.95Q43.65 51.90 42.17 49.60Q40.70 47.30 39.25 44.95Q37.80 42.60 36.50 40.35Q35.20 38.10 34.20 36.10L34.20 36.10Q34.40 35.55 34.95 35.02Q35.50 34.50 36.40 34.50L36.40 34.50Q37.35 34.50 37.88 35.00Q38.40 35.50 38.95 36.50L38.95 36.50Q39.75 37.90 40.83 39.80Q41.90 41.70 43.02 43.65Q44.15 45.60 45.20 47.42Q46.25 49.25 47 50.45L47 50.45L47.20 50.45Q49.80 46.10 51.83 42.35Q53.85 38.60 55.85 34.85L55.85 34.85Q56.15 34.65 56.58 34.57Q57 34.50 57.40 34.50L57.40 34.50Q59.30 34.50 59.30 36.20ZM92.35 50.00L92.35 50.00Q92.35 53.90 91.25 56.87Q90.15 59.85 88.20 61.82Q86.25 63.80 83.60 64.82Q80.95 65.85 77.85 65.85L77.85 65.85Q74.75 65.85 72.10 64.82Q69.45 63.80 67.50 61.82Q65.55 59.85 64.45 56.87Q63.35 53.90 63.35 50.00L63.35 50.00Q63.35 46.10 64.47 43.15Q65.60 40.20 67.55 38.20Q69.50 36.20 72.15 35.17Q74.80 34.15 77.85 34.15L77.85 34.15Q80.90 34.15 83.55 35.17Q86.20 36.20 88.15 38.20Q90.10 40.20 91.22 43.15Q92.35 46.10 92.35 50.00ZM88.20 50.00L88.20 50.00Q88.20 44.00 85.38 40.80Q82.55 37.60 77.85 37.60L77.85 37.60Q75.50 37.60 73.60 38.42Q71.70 39.25 70.35 40.82Q69 42.40 68.28 44.70Q67.55 47.00 67.55 50.00L67.55 50.00Q67.55 56.00 70.35 59.20Q73.15 62.40 77.85 62.40L77.85 62.40Q82.60 62.40 85.40 59.20Q88.20 56.00 88.20 50.00Z"></path></svg>